HIERARCHY
ROOT hip
{
  OFFSET 0 0 0
  CHANNELS 6 Xposition Yposition Zposition Zrotation Yrotation Xrotation
  JOINT abdomen
  {
    OFFSET 0 20.6881 -0.73152
    CHANNELS 3 Zrotation Xrotation Yrotation
    JOINT chest
    {
      OFFSET 0 11.7043 -0.48768
      CHANNELS 3 Zrotation Xrotation Yrotation
      JOINT neck
      {
        OFFSET 0 22.1894 -2.19456
        CHANNELS 3 Zrotation Xrotation Yrotation
        JOINT head
        {
          OFFSET -0.24384 7.07133 1.2192
          CHANNELS 3 Zrotation Xrotation Yrotation
          JOINT leftEye
          {
            OFFSET 4.14528 8.04674 8.04672
            CHANNELS 3 Zrotation Xrotation Yrotation
            End Site
            {
              OFFSET 1 0 0
            }
          }
          JOINT rightEye
          {
            OFFSET -3.6576 8.04674 8.04672
            CHANNELS 3 Zrotation Xrotation Yrotation
            End Site
            {
              OFFSET 1 0 0
            }
          }
        }
      }
      JOINT rCollar
      {
        OFFSET -2.68224 19.2634 -4.8768
        CHANNELS 3 Zrotation Xrotation Yrotation
        JOINT rShldr
        {
          OFFSET -8.77824 -1.95073 1.46304
          CHANNELS 3 Zrotation Xrotation Yrotation
          JOINT rForeArm
          {
            OFFSET -28.1742 -1.7115 0.48768
            CHANNELS 3 Zrotation Xrotation Yrotation
            JOINT rHand
            {
              OFFSET -22.5879 0.773209 7.07136
              CHANNELS 3 Zrotation Xrotation Yrotation
              JOINT rThumb1
              {
                OFFSET -1.2192 -0.487915 3.41376
                CHANNELS 3 Zrotation Xrotation Yrotation
                JOINT rThumb2
                {
                  OFFSET -3.37035 -0.52449 3.41376
                  CHANNELS 3 Zrotation Xrotation Yrotation
                  End Site
                  {
                    OFFSET -1.78271 -1.18214 1.43049
                  }
                }
              }
              JOINT rIndex1
              {
                OFFSET -7.75947 0.938293 5.60832
                CHANNELS 3 Zrotation Xrotation Yrotation
                JOINT rIndex2
                {
                  OFFSET -2.54057 -0.884171 1.56538
                  CHANNELS 3 Zrotation Xrotation Yrotation
                  End Site
                  {
                    OFFSET -1.62519 -0.234802 1.16502
                  }
                }
              }
              JOINT rMid1
              {
                OFFSET -8.24714 1.18213 3.41376
                CHANNELS 3 Zrotation Xrotation Yrotation
                JOINT rMid2
                {
                  OFFSET -3.10165 -0.590103 1.0647
                  CHANNELS 3 Zrotation Xrotation Yrotation
                  End Site
                  {
                    OFFSET -2.48547 -0.328903 0.83742
                  }
                }
              }
              JOINT rRing1
              {
                OFFSET -8.82822 0.546677 1.51678
                CHANNELS 3 Zrotation Xrotation Yrotation
                JOINT rRing2
                {
                  OFFSET -2.60934 -0.819778 -0.0198488
                  CHANNELS 3 Zrotation Xrotation Yrotation
                  End Site
                  {
                    OFFSET -2.33842 -0.294052 0.168128
                  }
                }
              }
              JOINT rPinky1
              {
                OFFSET -8.27202 -0.0477905 -0.4584
                CHANNELS 3 Zrotation Xrotation Yrotation
                JOINT rPinky2
                {
                  OFFSET -1.82734 -0.647385 -0.700984
                  CHANNELS 3 Zrotation Xrotation Yrotation
                  End Site
                  {
                    OFFSET -1.69225 -0.51767 -0.607171
                  }
                }
              }
            }
          }
        }
      }
      JOINT lCollar
      {
        OFFSET 2.68224 19.2634 -4.8768
        CHANNELS 3 Zrotation Xrotation Yrotation
        JOINT lShldr
        {
          OFFSET 8.77824 -1.95073 1.46304
          CHANNELS 3 Zrotation Xrotation Yrotation
          JOINT lForeArm
          {
            OFFSET 28.1742 -1.7115 0.48768
            CHANNELS 3 Zrotation Xrotation Yrotation
            JOINT lHand
            {
              OFFSET 22.5879 0.773209 7.07136
              CHANNELS 3 Zrotation Xrotation Yrotation
              JOINT lThumb1
              {
                OFFSET 1.2192 -0.487915 3.41376
                CHANNELS 3 Zrotation Xrotation Yrotation
                JOINT lThumb2
                {
                  OFFSET 3.37035 -0.52449 3.41376
                  CHANNELS 3 Zrotation Xrotation Yrotation
                  End Site
                  {
                    OFFSET 1.78271 -1.18214 1.43049
                  }
                }
              }
              JOINT lIndex1
              {
                OFFSET 7.75947 0.938293 5.60832
                CHANNELS 3 Zrotation Xrotation Yrotation
                JOINT lIndex2
                {
                  OFFSET 2.54057 -0.884171 1.56538
                  CHANNELS 3 Zrotation Xrotation Yrotation
                  End Site
                  {
                    OFFSET 1.62519 -0.234802 1.16502
                  }
                }
              }
              JOINT lMid1
              {
                OFFSET 8.24714 1.18213 3.41376
                CHANNELS 3 Zrotation Xrotation Yrotation
                JOINT lMid2
                {
                  OFFSET 3.10165 -0.590103 1.0647
                  CHANNELS 3 Zrotation Xrotation Yrotation
                  End Site
                  {
                    OFFSET 2.48547 -0.328903 0.83742
                  }
                }
              }
              JOINT lRing1
              {
                OFFSET 8.82822 0.546677 1.51678
                CHANNELS 3 Zrotation Xrotation Yrotation
                JOINT lRing2
                {
                  OFFSET 2.60934 -0.819778 -0.0198488
                  CHANNELS 3 Zrotation Xrotation Yrotation
                  End Site
                  {
                    OFFSET 2.33842 -0.294052 0.168128
                  }
                }
              }
              JOINT lPinky1
              {
                OFFSET 8.27202 -0.0477905 -0.4584
                CHANNELS 3 Zrotation Xrotation Yrotation
                JOINT lPinky2
                {
                  OFFSET 1.82734 -0.647385 -0.700984
                  CHANNELS 3 Zrotation Xrotation Yrotation
                  End Site
                  {
                    OFFSET 1.69225 -0.51767 -0.607171
                  }
                }
              }
            }
          }
        }
      }
    }
  }
  JOINT rButtock
  {
    OFFSET -8.77824 4.35084 1.2192
    CHANNELS 3 Zrotation Xrotation Yrotation
    JOINT rThigh
    {
      OFFSET 0 -1.70687 -2.19456
      CHANNELS 3 Zrotation Xrotation Yrotation
      JOINT rShin
      {
        OFFSET 0 -36.8199 0.73152
        CHANNELS 3 Zrotation Xrotation Yrotation
        JOINT rFoot
        {
          OFFSET 0.73152 -45.1104 -5.12064
          CHANNELS 3 Zrotation Xrotation Yrotation
          End Site
          {
            OFFSET -1.1221 -3.69964 12.103
          }
        }
      }
    }
  }
  JOINT lButtock
  {
    OFFSET 8.77824 4.35084 1.2192
    CHANNELS 3 Zrotation Xrotation Yrotation
    JOINT lThigh
    {
      OFFSET 0 -1.70687 -2.19456
      CHANNELS 3 Zrotation Xrotation Yrotation
      JOINT lShin
      {
        OFFSET 0 -36.8199 0.73152
        CHANNELS 3 Zrotation Xrotation Yrotation
        JOINT lFoot
        {
          OFFSET -0.73152 -45.1104 -5.12064
          CHANNELS 3 Zrotation Xrotation Yrotation
          End Site
          {
            OFFSET 1.1221 -3.69964 12.103
          }
        }
      }
    }
  }
}
MOTION
Frames:	7
Frame Time:	0.03333
0.0 0.0 0.0 0.0 0.0 0.0 0.0 0.0 0.0 0.0 0.0 0.0 0.0 0.0 0.0 0.0 0.0 0.0 0.0 0.0 0.0 0.0 0.0 0.0 0.0 0.0 0.0 0.0 0.0 0.0 0.0 0.0 0.0 0.0 0.0 0.0 0.0 0.0 0.0 0.0 0.0 0.0 0.0 0.0 0.0 0.0 0.0 0.0 0.0 0.0 0.0 0.0 0.0 0.0 0.0 0.0 0.0 0.0 0.0 0.0 0.0 0.0 0.0 0.0 0.0 0.0 0.0 0.0 0.0 0.0 0.0 0.0 0.0 0.0 0.0 0.0 0.0 0.0 0.0 0.0 0.0 0.0 0.0 0.0 0.0 0.0 0.0 0.0 0.0 0.0 0.0 0.0 0.0 0.0 0.0 0.0 0.0 0.0 0.0 0.0 0.0 0.0 0.0 0.0 0.0 0.0 0.0 0.0 0.0 0.0 0.0 0.0 0.0 0.0 0.0 0.0 0.0 0.0 0.0 0.0 0.0 0.0 0.0 0.0 0.0 0.0 0.0 0.0 0.0 0.0 0.0 0.0
-0.21789999999999998 62.4016 0.1028 0.297358 -69.859054 -1.459501 -0.120505 4.48573 -0.0 8.016315 -11.46032 -134.848475 6.246929 -19.512605 51.981863 6.881805 -34.82901 4.885204 -161.799912 7.502818 44.523842 49.53034 8.839394 19.022206 -82.681394 -36.887783 163.667815 4.892481 16.036632 12.270697 147.504791 80.746537 7.032096 140.095007 -43.106147 37.769114 -166.117634 -1.700392 59.388998 31.750065 9.657266 -160.101512 -135.604066 -15.308989 141.193943 55.334401 -28.984513 -179.01023 -4.930467 -34.798708 -137.945185 -101.473356 58.297239 3.375182 -93.611204 25.114198 -93.719058 47.484871 21.493355 -25.275327 -73.520526 21.694802 -79.604444 -161.77448 32.064784 -142.882115 -34.905018 55.611276 -52.342841 159.725909 -19.915305 -179.284532 176.275207 57.166682 19.904404 -45.843755 -50.250265 44.653311 -14.780486 -12.713035 -49.49533 -26.651204 -42.375135 12.307479 67.650778 -9.917997 -23.427191 172.917221 6.700461 -97.890325 172.116467 -16.570353 -53.139716 111.333354 60.150879 40.971201 108.660706 -15.756091 137.113821 84.810309 45.035001 -50.76771 10.210632 12.466672 63.045959 90.687582 -65.634146 77.312659 36.103877 -43.109384 49.317683 5.918743 54.950537 -4.783574 -1.958389 5.982297 -161.796861 -64.415938 -30.595518 116.927472 -0.395812 48.108644 -179.468296 1.617095 47.156839 2.576764 4.754843 2.815959 111.02792 -73.885274 2.480911 90.029455
0.8397 62.843199999999996 1.4788000000000001 -177.98734 -0.114709 -172.766127 -5.680615 4.788472 49.996357 3.487455 -11.437794 -59.791089 -19.67911 10.082488 -47.879758 28.886382 -9.432256 49.899229 10.453267 -2.662886 -28.51217 -12.242486 1.950069 -18.034812 -133.563238 31.336319 132.062322 130.649998 -48.146528 164.531041 -15.712287 -39.306862 94.262571 10.853603 -31.169795 6.389856 -105.072442 51.283718 74.690364 20.783214 -40.965344 20.508653 -174.068868 -28.980837 117.22183 -86.773893 20.700156 44.232819 -40.818866 52.474208 25.310293 7.90368 0.104303 -2.907225 -142.026566 -29.941808 175.851775 4.954799 28.258578 55.117021 -103.260268 48.424462 92.274095 36.249888 -62.358216 -14.29239 -18.338755 61.904682 18.591762 -176.950285 9.471508 -89.300635 172.995773 66.800733 74.210615 13.600907 15.53805 -8.152459 -133.916401 -71.757087 -89.712292 149.717023 2.165228 -139.79401 17.836919 0.303496 -0.242913 0.674454 53.468777 -3.466142 157.933987 -39.980028 -161.228061 -12.846376 17.025247 -41.898975 118.812883 -46.502802 131.014166 -49.091509 -9.969284 30.936392 156.894768 76.180949 148.754474 55.841057 8.296899 0.552841 -18.372039 86.518974 -180.0 174.002637 37.673887 9.753652 55.18622 57.825029 -125.153579 113.119169 34.369697 -26.021167 27.289279 -15.128179 20.953751 -27.135844 -24.273926 -180.0 0.991246 -64.108329 69.285808 68.189884 -17.22996 177.098329
0.3616 65.84989999999999 2.5532 -179.641637 6.275823 -177.77321 -11.54595 4.358011 -110.403556 -3.162883 12.669208 96.109268 19.697798 10.521029 73.370884 -34.418318 18.76796 -55.241861 0.961478 -0.494485 -54.432383 -12.474368 -2.644561 23.851115 10.082654 -12.21763 13.50683 -108.100049 19.121461 138.880109 -170.021244 -40.1223 -70.828704 2.845842 -2.934078 0.193357 -162.903573 48.284122 89.155208 -130.99571 -7.638212 27.769552 -137.290519 48.401069 55.743704 101.382665 32.175582 17.7642 91.193481 -83.911132 97.265923 172.085022 24.000151 111.112925 -121.376 24.698766 139.974973 104.571894 23.852544 2.843908 91.488664 -38.059466 169.412123 161.986237 -11.342368 -60.982143 149.632381 6.46273 167.659796 75.299081 -28.070726 69.192336 14.465553 51.560902 120.30302 177.751129 -18.747811 -143.121149 8.477775 29.512433 15.730382 -153.117371 -18.912581 -10.830065 -77.4515 -30.928185 -57.947876 167.976652 -61.847976 166.522797 143.115606 -46.114986 -146.069046 -88.647087 55.538837 -70.480617 -2.711183 44.522183 -1.789805 67.521072 0.464304 -0.376016 11.929866 -80.041115 41.846823 -64.302494 15.288766 -91.901386 -39.25205 -18.635167 -0.0 27.267081 -29.758105 -90.890631 -48.564351 19.533387 86.809837 -123.713482 -37.740191 44.738257 -137.367397 -20.291863 88.25263 -117.803486 -32.523959 158.784781 33.197731 46.162424 166.722975 81.840269 32.945554 -163.125068
-0.1301 74.7137 1.5562 -179.528325 3.871502 -179.788033 -14.344559 10.601043 -0.0 12.411766 -7.023146 6.915028 25.748267 3.634585 82.353985 -20.234924 32.066619 -82.9141 -8.514169 3.435277 -43.88463 -24.063233 4.053587 -18.854932 -65.798961 -81.958906 -94.235186 44.24955 8.167758 -21.106934 -126.392638 -63.834706 81.903519 136.516055 -39.187966 136.775639 3.519349 58.714059 -88.165249 105.276607 -63.088519 150.131857 157.248629 53.846769 131.031634 6.31179 37.223602 113.340647 22.445706 60.389898 -101.824117 -149.420724 -24.374309 98.591071 -42.729993 80.709652 75.043458 -134.345029 -10.341411 -114.163367 -104.900976 31.899783 97.28696 38.508303 -22.486237 37.190313 -12.517966 -14.921331 -7.877036 -77.080503 -19.507371 -52.266054 173.843199 -37.346625 -53.988293 -171.647982 -10.213836 -144.496636 7.437567 28.773756 27.635872 2.979799 -24.397869 -81.395104 123.92233 22.544211 -78.307837 -178.035276 -20.143779 -76.063359 129.614164 3.733273 -151.632083 1.638349 -77.578829 171.807219 118.20093 -45.051062 132.612368 21.536066 63.352013 -121.488736 -1.625676 -60.61526 -15.978074 -2.19967 -7.401991 -34.149649 -102.164859 -7.168833 -26.530188 93.72719 -18.567875 -165.178411 -38.443963 -43.860456 68.109875 118.198473 -16.561191 -70.541164 12.008278 24.050145 74.428873 -59.83676 -6.643794 77.594079 41.601633 -42.564747 -17.029812 -117.490679 56.183904 27.969583
0.365 72.5602 0.9353 179.341533 1.729802 -179.160715 -18.775764 4.706739 66.495895 2.64714 -15.068822 -40.377671 7.20742 1.302189 -74.439038 1.288811 -20.268618 48.490109 -23.552126 5.964806 -28.062704 -46.523447 15.851576 -35.890252 -96.625912 -57.364625 -129.71092 58.973662 20.926236 -15.703523 -43.075466 15.77203 125.591439 24.613947 -19.914557 26.566448 -178.479546 7.654888 -178.079659 -105.183226 34.805116 -178.640163 -47.636061 37.988809 -46.083327 -86.91935 11.160099 40.265907 -169.536215 -13.885455 -164.042409 101.271999 74.616911 -87.502961 61.667275 46.861167 -31.904015 66.623039 60.677481 -133.412791 -52.549129 60.959876 83.655926 -18.633145 -38.511049 -36.74485 153.55479 -17.270599 -128.422241 -12.085352 11.665626 54.422918 -11.898368 -46.248091 112.097802 -167.153608 -3.961252 -140.514226 -13.817627 -65.51794 14.958534 36.578546 -45.091389 139.83558 77.151947 28.037171 -26.572877 90.905425 -29.406792 -78.157593 -1.889489 1.496301 -7.706998 -94.723051 7.487756 10.591893 143.221823 -10.926122 170.434281 100.827043 -37.107335 176.034987 41.135321 21.609039 -36.349231 23.658664 -64.484693 53.781228 102.041219 72.748967 -12.141953 -153.181627 -6.785665 81.917184 56.342004 -71.368834 153.610766 130.208845 0.363734 -88.040547 -25.902639 -16.278457 -0.0 29.265649 -20.646781 108.153136 63.681054 1.542464 150.860908 112.833858 -27.498789 -178.422472
0.3896 74.9028 1.5928999999999998 179.160729 -4.641987 -176.330771 -7.444053 -2.261625 -86.508724 -1.310234 3.742662 107.588796 25.922537 -6.187343 100.126923 3.71941 22.289848 -99.852108 -45.512511 11.469736 -26.92863 16.280564 0.021577 0.150845 8.06232 2.511871 -22.672695 19.023681 -4.155118 63.611602 79.449541 20.257344 101.165121 -143.243651 75.540022 126.209024 -8.442482 -23.80609 -78.500643 172.604613 -8.509356 -11.99051 -161.388092 4.981927 -166.94904 178.950863 11.85995 -141.692557 -146.174708 30.835822 174.13562 -29.174706 -25.83873 -103.15871 -113.419607 0.896321 -173.713637 -52.885343 -44.624889 -122.014892 -149.439085 14.917361 -139.057363 3.767499 21.765668 -25.017263 123.456599 26.566684 -124.145305 31.970647 39.340236 33.936777 5.580369 -12.693864 122.144426 -164.012262 -21.321304 -128.687984 2.736125 -17.123968 10.566657 -10.903708 37.37658 -27.986769 24.080472 -14.380375 -6.038076 -22.784806 67.7669 -33.511643 17.507321 -8.863845 -27.207389 29.938928 -62.597977 -176.77738 -15.689531 -5.986793 -3.167014 57.005403 2.528135 -1.006227 178.476238 3.779027 176.730373 96.928611 37.379861 -105.882369 -105.07011 49.322281 -18.99959 138.178063 -28.925369 -180.0 90.737546 -63.087734 18.867035 -142.66838 24.694282 109.177379 -107.747988 60.392203 -61.735437 153.523509 38.828394 -141.53701 -27.251173 -60.952018 60.672545 32.832293 88.068943 58.515359
